<svg xmlns="http://www.w3.org/2000/svg" version="1.1" xmlns:xlink="http://www.w3.org/1999/xlink" xmlns:svgjs="http://svgjs.com/svgjs" width="1024" height="1024" viewBox="0 0 1024 1024" id="QRtiger" xml:space="preserve" x="22" y="22" fill-rule="evenodd" fill="#573989"><svg id="SvgjsSvg1001" width="2" height="0" focusable="false" style="overflow: hidden; top: -100%; left: -100%; position: absolute; opacity: 0"><polyline id="SvgjsPolyline1002" points="0,0"></polyline><path id="SvgjsPath1003" d="M0 0 "></path></svg><svg version="1.1" xmlns:xlink="http://www.w3.org/1999/xlink" xmlns:svgjs="http://svgjs.com/svgjs" width="1024" height="1024" viewBox="0 0 544 731.5" id="frames" xml:space="preserve" x="0" y="0" fill-rule="evenodd" fill="#573989"><svg id="SvgjsSvg1001" width="2" height="0" focusable="false" style="overflow: hidden; top: -100%; left: -100%; position: absolute; opacity: 0"><polyline id="SvgjsPolyline1002" points="0,0"></polyline><path id="SvgjsPath1003" d="M22 0H522C522 0 544 0 544 22V522C544 522 544 544 522 544H22C22 544 0 544 0 522V22C0 22 0 0 22 0M33 22H511C511 22 522 22 522 33V511C522 511 522 522 511 522H33C33 522 22 522 22 511V33C22 33 22 22 33 22M272 556.5L322 606.5H522C522 606.5 544 606.5 544 628.5V709.5C544 709.5 544 731.5 522 731.5H22C22 731.5 0 731.5 0 709.5V628.5C0 628.5 0 606.5 22 606.5H222L272 556.5Z "></path></svg><path id="SvgjsPath11796366" d="M22 0H522C522 0 544 0 544 22V522C544 522 544 544 522 544H22C22 544 0 544 0 522V22C0 22 0 0 22 0M33 22H511C511 22 522 22 522 33V511C522 511 522 522 511 522H33C33 522 22 522 22 511V33C22 33 22 22 33 22M272 556.5L322 606.5H522C522 606.5 544 606.5 544 628.5V709.5C544 709.5 544 731.5 522 731.5H22C22 731.5 0 731.5 0 709.5V628.5C0 628.5 0 606.5 22 606.5H222L272 556.5Z " fill-rule="evenodd" fill="#054080"></path><text id="SvgjsText11796367" font-family="Arial" x="272" y="621.3015625" fill="#ffffff" font-size="49" font-weight="700" text-anchor="middle" size="49" anchor="middle" svgjs:data="{&quot;leading&quot;:&quot;1.5&quot;}"><tspan id="SvgjsTspan11796368" dy="73.5" x="272" svgjs:data="{&quot;newLined&quot;:true}">SCAN ME</tspan></text><svg version="1.1" xmlns:xlink="http://www.w3.org/1999/xlink" xmlns:svgjs="http://svgjs.com/svgjs" width="500" height="500" viewBox="0 0 500 500" id="QRtiger" xml:space="preserve" x="22" y="22" fill-rule="evenodd" fill="#573989"><svg id="SvgjsSvg1002" width="2" height="0" focusable="false" style="overflow: hidden; top: -100%; left: -100%; position: absolute; opacity: 0"><polyline id="SvgjsPolyline1003" points="0,0"></polyline><path id="SvgjsPath1004" d="M97.57575757575758 49.17287878787879C97.57575757575758 76.11788215488217 75.73288215488218 97.96075757575757 48.78787878787879 97.96075757575757S0 76.11788215488217 0 49.17287878787878S21.84287542087542 0.3849999999999909 48.78787878787879 0.3849999999999909S97.57575757575758 22.227875420875424 97.57575757575758 49.17287878787879ZM48.78787878787879 11.226750841750842C27.830774410774413 11.226750841750842 10.84175084175084 28.215774410774415 10.84175084175084 49.17287878787879S27.830774410774413 87.11900673400672 48.78787878787879 87.11900673400672S86.73400673400673 70.12998316498316 86.73400673400673 49.17287878787878S69.74498316498317 11.226750841750842 48.78787878787879 11.226750841750842Z "></path></svg><defs id="SvgjsDefs41445173"><linearGradient id="linearGradient" gradientUnits="userSpaceOnUse" x1="0" y1="0" x2="500" y2="0"><stop id="SvgjsStop41445175" stop-color="#000000" offset="0"></stop><stop id="SvgjsStop41445176" stop-color="#0000ff" offset="1"></stop></linearGradient></defs><rect id="background" width="500" height="500" fill-opacity="0"></rect><path id="r0C9" d="M162.75862068965517,20H170.75310344827588A7.9944827586206895,7.9944827586206895 0 0 1 178.74758620689656,27.99448275862069V27.99448275862069A7.9944827586206895,7.9944827586206895 0 0 1 170.75310344827585,35.98896551724138H162.75862068965517V20Z" fill="#000000"></path><path id="r0C10" d="M186.6151724137931,20H194.6096551724138V35.98896551724138H178.6206896551724V27.99448275862069A7.9944827586206895,7.9944827586206895 0 0 1 186.61517241379312,20Z" fill="#000000"></path><path id="r0C12" d="M210.34482758620692,20H218.33931034482762A7.9944827586206895,7.9944827586206895 0 0 1 226.3337931034483,27.99448275862069V35.98896551724138H210.34482758620692V20Z" fill="#000000"></path><path id="r0C13" d="M234.20137931034483,20H234.20137931034486A7.9944827586206895,7.9944827586206895 0 0 1 242.19586206896554,27.99448275862069V27.99448275862069A7.9944827586206895,7.9944827586206895 0 0 1 234.20137931034483,35.98896551724138H234.20137931034483A7.9944827586206895,7.9944827586206895 0 0 1 226.20689655172416,27.99448275862069V27.99448275862069A7.9944827586206895,7.9944827586206895 0 0 1 234.20137931034486,20Z" fill="#000000"></path><path id="r0C14" d="M250.06344827586207,20H258.05793103448275V35.98896551724138H250.06344827586207A7.9944827586206895,7.9944827586206895 0 0 1 242.0689655172414,27.99448275862069V27.99448275862069A7.9944827586206895,7.9944827586206895 0 0 1 250.06344827586207,20Z" fill="#000000"></path><path id="r0C19" d="M321.3793103448276,20H329.3737931034483A7.9944827586206895,7.9944827586206895 0 0 1 337.36827586206897,27.99448275862069V35.98896551724138H321.3793103448276V20Z" fill="#000000"></path><path id="r0C20" d="M345.2358620689655,20H353.2303448275862V35.98896551724138H345.2358620689655A7.9944827586206895,7.9944827586206895 0 0 1 337.2413793103448,27.99448275862069V27.99448275862069A7.9944827586206895,7.9944827586206895 0 0 1 345.2358620689655,20Z" fill="#000000"></path><path id="r1C8" d="M146.89655172413794,35.86206896551724H162.88551724137932V51.85103448275862H146.89655172413794V35.86206896551724Z" fill="#000000"></path><path id="r1C10" d="M178.6206896551724,35.86206896551724H194.6096551724138V43.85655172413793A7.9944827586206895,7.9944827586206895 0 0 1 186.6151724137931,51.85103448275862H178.6206896551724V35.86206896551724Z" fill="#000000"></path><path id="r1C11" d="M202.47724137931033,35.86206896551724H202.47724137931036A7.9944827586206895,7.9944827586206895 0 0 1 210.47172413793103,43.85655172413793V51.85103448275862H194.48275862068965V43.85655172413793A7.9944827586206895,7.9944827586206895 0 0 1 202.47724137931036,35.86206896551724Z" fill="#000000"></path><path id="r1C12" d="M210.34482758620692,35.86206896551724H226.3337931034483V51.85103448275862H210.34482758620692V35.86206896551724Z" fill="#000000"></path><path id="r1C15" d="M257.9310344827586,35.86206896551724H273.91999999999996V51.85103448275862H257.9310344827586V35.86206896551724Z" fill="#000000"></path><path id="r1C18" d="M305.51724137931035,35.86206896551724H313.511724137931A7.9944827586206895,7.9944827586206895 0 0 1 321.5062068965517,43.85655172413793V51.85103448275862H305.51724137931035V35.86206896551724Z" fill="#000000"></path><path id="r1C19" d="M321.3793103448276,35.86206896551724H337.36827586206897V51.85103448275862H329.3737931034483A7.9944827586206895,7.9944827586206895 0 0 1 321.3793103448276,43.85655172413793V35.86206896551724Z" fill="#000000"></path><path id="r2C9" d="M162.75862068965517,51.724137931034484H178.74758620689656V67.71310344827586H162.75862068965517V51.724137931034484Z" fill="#000000"></path><path id="r2C11" d="M194.48275862068965,51.724137931034484H210.47172413793103V67.71310344827586H194.48275862068965V51.724137931034484Z" fill="#000000"></path><path id="r2C12" d="M210.34482758620692,51.724137931034484H226.3337931034483V67.71310344827586H210.34482758620692V51.724137931034484Z" fill="#000000"></path><path id="r2C13" d="M234.20137931034483,51.724137931034484H234.20137931034486A7.9944827586206895,7.9944827586206895 0 0 1 242.19586206896554,59.71862068965517V67.71310344827586H226.20689655172416V59.718620689655175A7.9944827586206895,7.9944827586206895 0 0 1 234.20137931034486,51.724137931034484Z" fill="#000000"></path><path id="r2C14" d="M250.06344827586207,51.724137931034484H250.06344827586207A7.9944827586206895,7.9944827586206895 0 0 1 258.05793103448275,59.71862068965517V59.71862068965517A7.9944827586206895,7.9944827586206895 0 0 1 250.06344827586207,67.71310344827586H250.06344827586207A7.9944827586206895,7.9944827586206895 0 0 1 242.0689655172414,59.718620689655175V59.718620689655175A7.9944827586206895,7.9944827586206895 0 0 1 250.06344827586207,51.724137931034484Z" fill="#000000"></path><path id="r2C15" d="M257.9310344827586,51.724137931034484H273.91999999999996V67.71310344827586H257.9310344827586V51.724137931034484Z" fill="#000000"></path><path id="r2C17" d="M289.65517241379314,51.724137931034484H297.6496551724138A7.9944827586206895,7.9944827586206895 0 0 1 305.6441379310345,59.71862068965517V59.71862068965517A7.9944827586206895,7.9944827586206895 0 0 1 297.6496551724138,67.71310344827586H289.65517241379314V51.724137931034484Z" fill="#000000"></path><path id="r2C18" d="M305.51724137931035,51.724137931034484H321.5062068965517V67.71310344827586H313.511724137931A7.9944827586206895,7.9944827586206895 0 0 1 305.51724137931035,59.718620689655175V51.724137931034484Z" fill="#000000"></path><path id="r3C10" d="M178.6206896551724,67.58620689655173H186.61517241379312A7.9944827586206895,7.9944827586206895 0 0 1 194.6096551724138,75.58068965517242V83.57517241379311H178.6206896551724V67.58620689655173Z" fill="#000000"></path><path id="r3C11" d="M194.48275862068965,67.58620689655173H210.47172413793103V83.57517241379311H194.48275862068965V67.58620689655173Z" fill="#000000"></path><path id="r3C12" d="M210.34482758620692,67.58620689655173H226.3337931034483V83.57517241379311H210.34482758620692V67.58620689655173Z" fill="#000000"></path><path id="r3C13" d="M226.20689655172416,67.58620689655173H242.19586206896554V83.57517241379311H226.20689655172416V67.58620689655173Z" fill="#000000"></path><path id="r3C15" d="M257.9310344827586,67.58620689655173H273.91999999999996V83.57517241379311H257.9310344827586V67.58620689655173Z" fill="#000000"></path><path id="r3C16" d="M281.78758620689655,67.58620689655173H289.7820689655172V83.57517241379311H281.78758620689655A7.9944827586206895,7.9944827586206895 0 0 1 273.7931034482759,75.58068965517242V75.58068965517242A7.9944827586206895,7.9944827586206895 0 0 1 281.78758620689655,67.58620689655173Z" fill="#000000"></path><path id="r3C20" d="M337.2413793103448,67.58620689655173H353.2303448275862V83.57517241379311H337.2413793103448V67.58620689655173Z" fill="#000000"></path><path id="r4C9" d="M162.75862068965517,83.44827586206897H170.75310344827588A7.9944827586206895,7.9944827586206895 0 0 1 178.74758620689656,91.44275862068966V91.44275862068966A7.9944827586206895,7.9944827586206895 0 0 1 170.75310344827585,99.43724137931035H162.75862068965517V83.44827586206897Z" fill="#000000"></path><path id="r4C10" d="M178.6206896551724,83.44827586206897H194.6096551724138V99.43724137931035H178.6206896551724V83.44827586206897Z" fill="#000000"></path><path id="r4C11" d="M194.48275862068965,83.44827586206897H210.47172413793103V99.43724137931035H194.48275862068965V83.44827586206897Z" fill="#000000"></path><path id="r4C12" d="M210.34482758620692,83.44827586206897H226.3337931034483V91.44275862068966A7.9944827586206895,7.9944827586206895 0 0 1 218.3393103448276,99.43724137931035H218.3393103448276A7.9944827586206895,7.9944827586206895 0 0 1 210.34482758620692,91.44275862068966V83.44827586206897Z" fill="#000000"></path><path id="r4C13" d="M226.20689655172416,83.44827586206897H242.19586206896554V91.44275862068966A7.9944827586206895,7.9944827586206895 0 0 1 234.20137931034483,99.43724137931035H234.20137931034483A7.9944827586206895,7.9944827586206895 0 0 1 226.20689655172416,91.44275862068966V83.44827586206897Z" fill="#000000"></path><path id="r4C14" d="M250.06344827586207,83.44827586206897H250.06344827586207A7.9944827586206895,7.9944827586206895 0 0 1 258.05793103448275,91.44275862068966V99.43724137931035H242.0689655172414V91.44275862068966A7.9944827586206895,7.9944827586206895 0 0 1 250.06344827586207,83.44827586206897Z" fill="#000000"></path><path id="r4C15" d="M257.9310344827586,83.44827586206897H273.91999999999996V99.43724137931035H265.9255172413793A7.9944827586206895,7.9944827586206895 0 0 1 257.9310344827586,91.44275862068966V83.44827586206897Z" fill="#000000"></path><path id="r4C17" d="M289.65517241379314,83.44827586206897H297.6496551724138A7.9944827586206895,7.9944827586206895 0 0 1 305.6441379310345,91.44275862068966V99.43724137931035H289.65517241379314V83.44827586206897Z" fill="#000000"></path><path id="r4C18" d="M313.511724137931,83.44827586206897H321.5062068965517V99.43724137931035H313.511724137931A7.9944827586206895,7.9944827586206895 0 0 1 305.51724137931035,91.44275862068966V91.44275862068966A7.9944827586206895,7.9944827586206895 0 0 1 313.511724137931,83.44827586206897Z" fill="#000000"></path><path id="r4C20" d="M337.2413793103448,83.44827586206897H353.2303448275862V99.43724137931035H337.2413793103448V83.44827586206897Z" fill="#000000"></path><path id="r5C8" d="M146.89655172413794,99.3103448275862H162.88551724137932V115.29931034482759H146.89655172413794V99.3103448275862Z" fill="#000000"></path><path id="r5C10" d="M178.6206896551724,99.3103448275862H194.6096551724138V115.29931034482759H178.6206896551724V99.3103448275862Z" fill="#000000"></path><path id="r5C11" d="M194.48275862068965,99.3103448275862H210.47172413793103V115.29931034482759H202.47724137931033A7.9944827586206895,7.9944827586206895 0 0 1 194.48275862068965,107.3048275862069V99.3103448275862Z" fill="#000000"></path><path id="r5C14" d="M242.0689655172414,99.3103448275862H258.05793103448275V115.29931034482759H242.0689655172414V99.3103448275862Z" fill="#000000"></path><path id="r5C16" d="M273.7931034482759,99.3103448275862H281.78758620689655A7.9944827586206895,7.9944827586206895 0 0 1 289.7820689655172,107.3048275862069V115.29931034482759H273.7931034482759V99.3103448275862Z" fill="#000000"></path><path id="r5C17" d="M289.65517241379314,99.3103448275862H305.6441379310345V115.29931034482759H297.6496551724138A7.9944827586206895,7.9944827586206895 0 0 1 289.65517241379314,107.3048275862069V99.3103448275862Z" fill="#000000"></path><path id="r5C19" d="M321.3793103448276,99.3103448275862H329.3737931034483A7.9944827586206895,7.9944827586206895 0 0 1 337.36827586206897,107.3048275862069V107.3048275862069A7.9944827586206895,7.9944827586206895 0 0 1 329.3737931034483,115.29931034482759H321.3793103448276V99.3103448275862Z" fill="#000000"></path><path id="r5C20" d="M337.2413793103448,99.3103448275862H353.2303448275862V115.29931034482759H337.2413793103448V99.3103448275862Z" fill="#000000"></path><path id="r6C8" d="M146.89655172413794,115.17241379310346H162.88551724137932V131.16137931034484H146.89655172413794V115.17241379310346Z" fill="#000000"></path><path id="r6C10" d="M178.6206896551724,115.17241379310346H194.6096551724138V131.16137931034484H178.6206896551724V115.17241379310346Z" fill="#000000"></path><path id="r6C12" d="M210.34482758620692,115.17241379310346H226.3337931034483V131.16137931034484H210.34482758620692V115.17241379310346Z" fill="#000000"></path><path id="r6C14" d="M242.0689655172414,115.17241379310346H258.05793103448275V131.16137931034484H242.0689655172414V115.17241379310346Z" fill="#000000"></path><path id="r6C16" d="M273.7931034482759,115.17241379310346H289.7820689655172V131.16137931034484H273.7931034482759V115.17241379310346Z" fill="#000000"></path><path id="r6C18" d="M305.51724137931035,115.17241379310346H321.5062068965517V131.16137931034484H305.51724137931035V115.17241379310346Z" fill="#000000"></path><path id="r6C20" d="M337.2413793103448,115.17241379310346H353.2303448275862V131.16137931034484H337.2413793103448V115.17241379310346Z" fill="#000000"></path><path id="r7C8" d="M146.89655172413794,131.0344827586207H162.88551724137932V147.02344827586208H146.89655172413794V131.0344827586207Z" fill="#000000"></path><path id="r7C12" d="M210.34482758620692,131.0344827586207H226.3337931034483V139.0289655172414A7.9944827586206895,7.9944827586206895 0 0 1 218.3393103448276,147.02344827586208H210.34482758620692V131.0344827586207Z" fill="#000000"></path><path id="r7C13" d="M234.20137931034483,131.0344827586207H242.19586206896554V147.02344827586208H234.20137931034483A7.9944827586206895,7.9944827586206895 0 0 1 226.20689655172416,139.02896551724137V139.02896551724137A7.9944827586206895,7.9944827586206895 0 0 1 234.20137931034486,131.0344827586207Z" fill="#000000"></path><path id="r7C19" d="M321.3793103448276,131.0344827586207H337.36827586206897V147.02344827586208H321.3793103448276V131.0344827586207Z" fill="#000000"></path><path id="r8C4" d="M83.44827586206897,146.89655172413794H91.44275862068966A7.9944827586206895,7.9944827586206895 0 0 1 99.43724137931035,154.89103448275864V154.89103448275864A7.9944827586206895,7.9944827586206895 0 0 1 91.44275862068966,162.88551724137932H83.44827586206897V146.89655172413794Z" fill="#000000"></path><path id="r8C5" d="M107.3048275862069,146.89655172413794H107.3048275862069A7.9944827586206895,7.9944827586206895 0 0 1 115.29931034482759,154.89103448275864V154.89103448275864A7.9944827586206895,7.9944827586206895 0 0 1 107.3048275862069,162.88551724137932H107.3048275862069A7.9944827586206895,7.9944827586206895 0 0 1 99.3103448275862,154.8910344827586V154.8910344827586A7.9944827586206895,7.9944827586206895 0 0 1 107.3048275862069,146.89655172413794Z" fill="#000000"></path><path id="r8C6" d="M123.16689655172415,146.89655172413794H123.16689655172415A7.9944827586206895,7.9944827586206895 0 0 1 131.16137931034484,154.89103448275864V154.89103448275864A7.9944827586206895,7.9944827586206895 0 0 1 123.16689655172415,162.88551724137932H123.16689655172415A7.9944827586206895,7.9944827586206895 0 0 1 115.17241379310346,154.8910344827586V154.8910344827586A7.9944827586206895,7.9944827586206895 0 0 1 123.16689655172415,146.89655172413794Z" fill="#000000"></path><path id="r8C7" d="M139.02896551724137,146.89655172413794H147.02344827586208V162.88551724137932H139.02896551724137A7.9944827586206895,7.9944827586206895 0 0 1 131.0344827586207,154.8910344827586V154.8910344827586A7.9944827586206895,7.9944827586206895 0 0 1 139.0289655172414,146.89655172413794Z" fill="#000000"></path><path id="r8C15" d="M257.9310344827586,146.89655172413794H273.91999999999996V162.88551724137932H257.9310344827586V146.89655172413794Z" fill="#000000"></path><path id="r8C19" d="M321.3793103448276,146.89655172413794H337.36827586206897V162.88551724137932H321.3793103448276V146.89655172413794Z" fill="#000000"></path><path id="r8C20" d="M345.2358620689655,146.89655172413794H353.2303448275862V162.88551724137932H345.2358620689655A7.9944827586206895,7.9944827586206895 0 0 1 337.2413793103448,154.8910344827586V154.8910344827586A7.9944827586206895,7.9944827586206895 0 0 1 345.2358620689655,146.89655172413794Z" fill="#000000"></path><path id="r8C22" d="M368.9655172413793,146.89655172413794H376.96A7.9944827586206895,7.9944827586206895 0 0 1 384.95448275862066,154.89103448275864V154.89103448275864A7.9944827586206895,7.9944827586206895 0 0 1 376.96,162.88551724137932H368.9655172413793V146.89655172413794Z" fill="#000000"></path><path id="r8C23" d="M392.82206896551725,146.89655172413794H400.8165517241379V162.88551724137932H384.82758620689657V154.8910344827586A7.9944827586206895,7.9944827586206895 0 0 1 392.82206896551725,146.89655172413794Z" fill="#000000"></path><path id="r8C27" d="M448.2758620689655,146.89655172413794H464.2648275862069V162.88551724137932H448.2758620689655V146.89655172413794Z" fill="#000000"></path><path id="r9C2" d="M51.724137931034484,162.75862068965517H67.71310344827586V178.74758620689656H51.724137931034484V162.75862068965517Z" fill="#000000"></path><path id="r9C8" d="M146.89655172413794,162.75862068965517H162.88551724137932V178.74758620689656H146.89655172413794V162.75862068965517Z" fill="#000000"></path><path id="r9C11" d="M194.48275862068965,162.75862068965517H202.47724137931036A7.9944827586206895,7.9944827586206895 0 0 1 210.47172413793103,170.75310344827588V170.75310344827588A7.9944827586206895,7.9944827586206895 0 0 1 202.47724137931033,178.74758620689656H194.48275862068965V162.75862068965517Z" fill="#000000"></path><path id="r9C12" d="M218.3393103448276,162.75862068965517H226.3337931034483V178.74758620689656H218.3393103448276A7.9944827586206895,7.9944827586206895 0 0 1 210.34482758620692,170.75310344827585V170.75310344827585A7.9944827586206895,7.9944827586206895 0 0 1 218.33931034482762,162.75862068965517Z" fill="#000000"></path><path id="r9C14" d="M242.0689655172414,162.75862068965517H258.05793103448275V178.74758620689656H242.0689655172414V162.75862068965517Z" fill="#000000"></path><path id="r9C16" d="M273.7931034482759,162.75862068965517H281.78758620689655A7.9944827586206895,7.9944827586206895 0 0 1 289.7820689655172,170.75310344827588V170.75310344827588A7.9944827586206895,7.9944827586206895 0 0 1 281.78758620689655,178.74758620689656H273.7931034482759V162.75862068965517Z" fill="#000000"></path><path id="r9C17" d="M297.6496551724138,162.75862068965517H297.6496551724138A7.9944827586206895,7.9944827586206895 0 0 1 305.6441379310345,170.75310344827588V178.74758620689656H289.65517241379314V170.75310344827585A7.9944827586206895,7.9944827586206895 0 0 1 297.6496551724138,162.75862068965517Z" fill="#000000"></path><path id="r9C18" d="M313.511724137931,162.75862068965517H313.511724137931A7.9944827586206895,7.9944827586206895 0 0 1 321.5062068965517,170.75310344827588V178.74758620689656H305.51724137931035V170.75310344827585A7.9944827586206895,7.9944827586206895 0 0 1 313.511724137931,162.75862068965517Z" fill="#000000"></path><path id="r9C19" d="M321.3793103448276,162.75862068965517H337.36827586206897V178.74758620689656H321.3793103448276V162.75862068965517Z" fill="#000000"></path><path id="r9C23" d="M384.82758620689657,162.75862068965517H400.8165517241379V170.75310344827588A7.9944827586206895,7.9944827586206895 0 0 1 392.82206896551725,178.74758620689656H384.82758620689657V162.75862068965517Z" fill="#000000"></path><path id="r9C24" d="M408.6841379310345,162.75862068965517H416.6786206896552V178.74758620689656H400.68965517241384V170.75310344827585A7.9944827586206895,7.9944827586206895 0 0 1 408.6841379310345,162.75862068965517Z" fill="#000000"></path><path id="r9C26" d="M432.4137931034483,162.75862068965517H440.408275862069A7.9944827586206895,7.9944827586206895 0 0 1 448.40275862068967,170.75310344827588V170.75310344827588A7.9944827586206895,7.9944827586206895 0 0 1 440.408275862069,178.74758620689656H432.4137931034483V162.75862068965517Z" fill="#000000"></path><path id="r9C27" d="M448.2758620689655,162.75862068965517H464.2648275862069V170.75310344827588A7.9944827586206895,7.9944827586206895 0 0 1 456.2703448275862,178.74758620689656H456.2703448275862A7.9944827586206895,7.9944827586206895 0 0 1 448.2758620689655,170.75310344827585V162.75862068965517Z" fill="#000000"></path><path id="r9C28" d="M472.13241379310347,162.75862068965517H480.12689655172414V178.74758620689656H464.1379310344828V170.75310344827585A7.9944827586206895,7.9944827586206895 0 0 1 472.13241379310347,162.75862068965517Z" fill="#000000"></path><path id="r10C1" d="M35.86206896551724,178.6206896551724H51.85103448275862V194.6096551724138H35.86206896551724V178.6206896551724Z" fill="#000000"></path><path id="r10C5" d="M99.3103448275862,178.6206896551724H107.3048275862069A7.9944827586206895,7.9944827586206895 0 0 1 115.29931034482759,186.61517241379312V194.6096551724138H99.3103448275862V178.6206896551724Z" fill="#000000"></path><path id="r10C6" d="M123.16689655172415,178.6206896551724H123.16689655172415A7.9944827586206895,7.9944827586206895 0 0 1 131.16137931034484,186.61517241379312V186.61517241379312A7.9944827586206895,7.9944827586206895 0 0 1 123.16689655172415,194.6096551724138H123.16689655172415A7.9944827586206895,7.9944827586206895 0 0 1 115.17241379310346,186.6151724137931V186.6151724137931A7.9944827586206895,7.9944827586206895 0 0 1 123.16689655172415,178.6206896551724Z" fill="#000000"></path><path id="r10C7" d="M139.02896551724137,178.6206896551724H139.0289655172414A7.9944827586206895,7.9944827586206895 0 0 1 147.02344827586208,186.61517241379312V194.6096551724138H131.0344827586207V186.6151724137931A7.9944827586206895,7.9944827586206895 0 0 1 139.0289655172414,178.6206896551724Z" fill="#000000"></path><path id="r10C8" d="M146.89655172413794,178.6206896551724H162.88551724137932V194.6096551724138H146.89655172413794V178.6206896551724Z" fill="#000000"></path><path id="r10C14" d="M242.0689655172414,178.6206896551724H258.05793103448275V194.6096551724138H242.0689655172414V178.6206896551724Z" fill="#000000"></path><path id="r10C17" d="M289.65517241379314,178.6206896551724H305.6441379310345V186.61517241379312A7.9944827586206895,7.9944827586206895 0 0 1 297.6496551724138,194.6096551724138H289.65517241379314V178.6206896551724Z" fill="#000000"></path><path id="r10C18" d="M305.51724137931035,178.6206896551724H321.5062068965517V186.61517241379312A7.9944827586206895,7.9944827586206895 0 0 1 313.511724137931,194.6096551724138H313.511724137931A7.9944827586206895,7.9944827586206895 0 0 1 305.51724137931035,186.6151724137931V178.6206896551724Z" fill="#000000"></path><path id="r10C19" d="M321.3793103448276,178.6206896551724H337.36827586206897V194.6096551724138H321.3793103448276V178.6206896551724Z" fill="#000000"></path><path id="r10C21" d="M353.1034482758621,178.6206896551724H369.09241379310345V194.6096551724138H353.1034482758621V178.6206896551724Z" fill="#000000"></path><path id="r10C24" d="M400.68965517241384,178.6206896551724H416.6786206896552V194.6096551724138H400.68965517241384V178.6206896551724Z" fill="#000000"></path><path id="r10C25" d="M424.5462068965517,178.6206896551724H432.5406896551724V194.6096551724138H424.5462068965517A7.9944827586206895,7.9944827586206895 0 0 1 416.55172413793105,186.6151724137931V186.6151724137931A7.9944827586206895,7.9944827586206895 0 0 1 424.5462068965517,178.6206896551724Z" fill="#000000"></path><path id="r10C28" d="M464.1379310344828,178.6206896551724H480.12689655172414V194.6096551724138H464.1379310344828V178.6206896551724Z" fill="#000000"></path><path id="r11C0" d="M20,194.48275862068965H35.98896551724138V210.47172413793103H20V194.48275862068965Z" fill="#000000"></path><path id="r11C3" d="M67.58620689655173,194.48275862068965H75.58068965517242A7.9944827586206895,7.9944827586206895 0 0 1 83.57517241379311,202.47724137931036V202.47724137931036A7.9944827586206895,7.9944827586206895 0 0 1 75.58068965517242,210.47172413793103H67.58620689655173V194.48275862068965Z" fill="#000000"></path><path id="r11C4" d="M91.44275862068966,194.48275862068965H91.44275862068966A7.9944827586206895,7.9944827586206895 0 0 1 99.43724137931035,202.47724137931036V202.47724137931036A7.9944827586206895,7.9944827586206895 0 0 1 91.44275862068966,210.47172413793103H91.44275862068966A7.9944827586206895,7.9944827586206895 0 0 1 83.44827586206897,202.47724137931033V202.47724137931033A7.9944827586206895,7.9944827586206895 0 0 1 91.44275862068966,194.48275862068965Z" fill="#000000"></path><path id="r11C5" d="M99.3103448275862,194.48275862068965H115.29931034482759V210.47172413793103H107.3048275862069A7.9944827586206895,7.9944827586206895 0 0 1 99.3103448275862,202.47724137931033V194.48275862068965Z" fill="#000000"></path><path id="r11C7" d="M131.0344827586207,194.48275862068965H147.02344827586208V210.47172413793103H131.0344827586207V194.48275862068965Z" fill="#000000"></path><path id="r11C8" d="M146.89655172413794,194.48275862068965H162.88551724137932V210.47172413793103H146.89655172413794V194.48275862068965Z" fill="#000000"></path><path id="r11C9" d="M170.75310344827585,194.48275862068965H178.74758620689656V210.47172413793103H162.75862068965517V202.47724137931033A7.9944827586206895,7.9944827586206895 0 0 1 170.75310344827588,194.48275862068965Z" fill="#000000"></path><path id="r11C12" d="M210.34482758620692,194.48275862068965H218.33931034482762A7.9944827586206895,7.9944827586206895 0 0 1 226.3337931034483,202.47724137931036V202.47724137931036A7.9944827586206895,7.9944827586206895 0 0 1 218.3393103448276,210.47172413793103H210.34482758620692V194.48275862068965Z" fill="#000000"></path><path id="r11C13" d="M234.20137931034483,194.48275862068965H242.19586206896554V210.47172413793103H226.20689655172416V202.47724137931033A7.9944827586206895,7.9944827586206895 0 0 1 234.20137931034486,194.48275862068965Z" fill="#000000"></path><path id="r11C16" d="M273.7931034482759,194.48275862068965H289.7820689655172V210.47172413793103H273.7931034482759V194.48275862068965Z" fill="#000000"></path><path id="r11C19" d="M321.3793103448276,194.48275862068965H337.36827586206897V202.47724137931036A7.9944827586206895,7.9944827586206895 0 0 1 329.3737931034483,210.47172413793103H321.3793103448276V194.48275862068965Z" fill="#000000"></path><path id="r11C20" d="M345.2358620689655,194.48275862068965H345.2358620689655A7.9944827586206895,7.9944827586206895 0 0 1 353.2303448275862,202.47724137931036V202.47724137931036A7.9944827586206895,7.9944827586206895 0 0 1 345.2358620689655,210.47172413793103H345.2358620689655A7.9944827586206895,7.9944827586206895 0 0 1 337.2413793103448,202.47724137931033V202.47724137931033A7.9944827586206895,7.9944827586206895 0 0 1 345.2358620689655,194.48275862068965Z" fill="#000000"></path><path id="r11C21" d="M353.1034482758621,194.48275862068965H369.09241379310345V210.47172413793103H361.09793103448277A7.9944827586206895,7.9944827586206895 0 0 1 353.1034482758621,202.47724137931033V194.48275862068965Z" fill="#000000"></path><path id="r11C24" d="M400.68965517241384,194.48275862068965H416.6786206896552V210.47172413793103H400.68965517241384V194.48275862068965Z" fill="#000000"></path><path id="r11C27" d="M448.2758620689655,194.48275862068965H456.2703448275862A7.9944827586206895,7.9944827586206895 0 0 1 464.2648275862069,202.47724137931036V202.47724137931036A7.9944827586206895,7.9944827586206895 0 0 1 456.2703448275862,210.47172413793103H448.2758620689655V194.48275862068965Z" fill="#000000"></path><path id="r11C28" d="M464.1379310344828,194.48275862068965H480.12689655172414V210.47172413793103H464.1379310344828V194.48275862068965Z" fill="#000000"></path><path id="r12C0" d="M20,210.34482758620692H35.98896551724138V226.3337931034483H20V210.34482758620692Z" fill="#000000"></path><path id="r12C2" d="M51.724137931034484,210.34482758620692H67.71310344827586V226.3337931034483H51.724137931034484V210.34482758620692Z" fill="#000000"></path><path id="r12C6" d="M115.17241379310346,210.34482758620692H123.16689655172415A7.9944827586206895,7.9944827586206895 0 0 1 131.16137931034484,218.33931034482762V218.33931034482762A7.9944827586206895,7.9944827586206895 0 0 1 123.16689655172415,226.3337931034483H115.17241379310346V210.34482758620692Z" fill="#000000"></path><path id="r12C7" d="M131.0344827586207,210.34482758620692H147.02344827586208V218.33931034482762A7.9944827586206895,7.9944827586206895 0 0 1 139.02896551724137,226.3337931034483H139.02896551724137A7.9944827586206895,7.9944827586206895 0 0 1 131.0344827586207,218.3393103448276V210.34482758620692Z" fill="#000000"></path><path id="r12C8" d="M146.89655172413794,210.34482758620692H162.88551724137932V218.33931034482762A7.9944827586206895,7.9944827586206895 0 0 1 154.8910344827586,226.3337931034483H154.8910344827586A7.9944827586206895,7.9944827586206895 0 0 1 146.89655172413794,218.3393103448276V210.34482758620692Z" fill="#000000"></path><path id="r12C9" d="M162.75862068965517,210.34482758620692H178.74758620689656V218.33931034482762A7.9944827586206895,7.9944827586206895 0 0 1 170.75310344827585,226.3337931034483H170.75310344827585A7.9944827586206895,7.9944827586206895 0 0 1 162.75862068965517,218.3393103448276V210.34482758620692Z" fill="#000000"></path><path id="r12C10" d="M186.6151724137931,210.34482758620692H194.6096551724138V226.3337931034483H186.6151724137931A7.9944827586206895,7.9944827586206895 0 0 1 178.6206896551724,218.3393103448276V218.3393103448276A7.9944827586206895,7.9944827586206895 0 0 1 186.61517241379312,210.34482758620692Z" fill="#000000"></path><path id="r12C13" d="M226.20689655172416,210.34482758620692H242.19586206896554V226.3337931034483H226.20689655172416V210.34482758620692Z" fill="#000000"></path><path id="r12C17" d="M289.65517241379314,210.34482758620692H297.6496551724138A7.9944827586206895,7.9944827586206895 0 0 1 305.6441379310345,218.33931034482762V218.33931034482762A7.9944827586206895,7.9944827586206895 0 0 1 297.6496551724138,226.3337931034483H289.65517241379314V210.34482758620692Z" fill="#000000"></path><path id="r12C18" d="M313.511724137931,210.34482758620692H321.5062068965517V226.3337931034483H305.51724137931035V218.3393103448276A7.9944827586206895,7.9944827586206895 0 0 1 313.511724137931,210.34482758620692Z" fill="#000000"></path><path id="r12C23" d="M384.82758620689657,210.34482758620692H400.8165517241379V226.3337931034483H384.82758620689657V210.34482758620692Z" fill="#000000"></path><path id="r12C25" d="M416.55172413793105,210.34482758620692H432.5406896551724V226.3337931034483H416.55172413793105V210.34482758620692Z" fill="#000000"></path><path id="r12C28" d="M464.1379310344828,210.34482758620692H480.12689655172414V226.3337931034483H464.1379310344828V210.34482758620692Z" fill="#000000"></path><path id="r13C0" d="M20,226.20689655172416H35.98896551724138V242.19586206896554H20V226.20689655172416Z" fill="#000000"></path><path id="r13C1" d="M43.85655172413793,226.20689655172416H51.85103448275862V242.19586206896554H35.86206896551724V234.20137931034483A7.9944827586206895,7.9944827586206895 0 0 1 43.85655172413793,226.20689655172416Z" fill="#000000"></path><path id="r13C4" d="M83.44827586206897,226.20689655172416H99.43724137931035V242.19586206896554H83.44827586206897V226.20689655172416Z" fill="#000000"></path><path id="r13C11" d="M194.48275862068965,226.20689655172416H202.47724137931036A7.9944827586206895,7.9944827586206895 0 0 1 210.47172413793103,234.20137931034486V234.20137931034486A7.9944827586206895,7.9944827586206895 0 0 1 202.47724137931033,242.19586206896554H194.48275862068965V226.20689655172416Z" fill="#000000"></path><path id="r13C12" d="M218.3393103448276,226.20689655172416H226.3337931034483V242.19586206896554H210.34482758620692V234.20137931034483A7.9944827586206895,7.9944827586206895 0 0 1 218.33931034482762,226.20689655172416Z" fill="#000000"></path><path id="r13C15" d="M257.9310344827586,226.20689655172416H273.91999999999996V242.19586206896554H257.9310344827586V226.20689655172416Z" fill="#000000"></path><path id="r13C18" d="M305.51724137931035,226.20689655172416H321.5062068965517V242.19586206896554H305.51724137931035V226.20689655172416Z" fill="#000000"></path><path id="r13C22" d="M368.9655172413793,226.20689655172416H384.95448275862066V242.19586206896554H368.9655172413793V226.20689655172416Z" fill="#000000"></path><path id="r13C24" d="M400.68965517241384,226.20689655172416H416.6786206896552V242.19586206896554H400.68965517241384V226.20689655172416Z" fill="#000000"></path><path id="r13C26" d="M432.4137931034483,226.20689655172416H448.40275862068967V242.19586206896554H432.4137931034483V226.20689655172416Z" fill="#000000"></path><path id="r13C28" d="M464.1379310344828,226.20689655172416H480.12689655172414V242.19586206896554H464.1379310344828V226.20689655172416Z" fill="#000000"></path><path id="r14C0" d="M20,242.0689655172414H35.98896551724138V250.06344827586207A7.9944827586206895,7.9944827586206895 0 0 1 27.99448275862069,258.05793103448275H20V242.0689655172414Z" fill="#000000"></path><path id="r14C1" d="M35.86206896551724,242.0689655172414H51.85103448275862V258.05793103448275H43.85655172413793A7.9944827586206895,7.9944827586206895 0 0 1 35.86206896551724,250.06344827586207V242.0689655172414Z" fill="#000000"></path><path id="r14C3" d="M67.58620689655173,242.0689655172414H75.58068965517242A7.9944827586206895,7.9944827586206895 0 0 1 83.57517241379311,250.06344827586207V258.05793103448275H67.58620689655173V242.0689655172414Z" fill="#000000"></path><path id="r14C4" d="M83.44827586206897,242.0689655172414H99.43724137931035V258.05793103448275H83.44827586206897V242.0689655172414Z" fill="#000000"></path><path id="r14C5" d="M107.3048275862069,242.0689655172414H107.3048275862069A7.9944827586206895,7.9944827586206895 0 0 1 115.29931034482759,250.06344827586207V250.06344827586207A7.9944827586206895,7.9944827586206895 0 0 1 107.3048275862069,258.05793103448275H107.3048275862069A7.9944827586206895,7.9944827586206895 0 0 1 99.3103448275862,250.06344827586207V250.06344827586207A7.9944827586206895,7.9944827586206895 0 0 1 107.3048275862069,242.0689655172414Z" fill="#000000"></path><path id="r14C6" d="M123.16689655172415,242.0689655172414H123.16689655172415A7.9944827586206895,7.9944827586206895 0 0 1 131.16137931034484,250.06344827586207V250.06344827586207A7.9944827586206895,7.9944827586206895 0 0 1 123.16689655172415,258.05793103448275H123.16689655172415A7.9944827586206895,7.9944827586206895 0 0 1 115.17241379310346,250.06344827586207V250.06344827586207A7.9944827586206895,7.9944827586206895 0 0 1 123.16689655172415,242.0689655172414Z" fill="#000000"></path><path id="r14C7" d="M139.02896551724137,242.0689655172414H147.02344827586208V258.05793103448275H131.0344827586207V250.06344827586207A7.9944827586206895,7.9944827586206895 0 0 1 139.0289655172414,242.0689655172414Z" fill="#000000"></path><path id="r14C9" d="M162.75862068965517,242.0689655172414H178.74758620689656V258.05793103448275H162.75862068965517V242.0689655172414Z" fill="#000000"></path><path id="r14C12" d="M210.34482758620692,242.0689655172414H226.3337931034483V258.05793103448275H210.34482758620692V242.0689655172414Z" fill="#000000"></path><path id="r14C13" d="M234.20137931034483,242.0689655172414H242.19586206896554V258.05793103448275H234.20137931034483A7.9944827586206895,7.9944827586206895 0 0 1 226.20689655172416,250.06344827586207V250.06344827586207A7.9944827586206895,7.9944827586206895 0 0 1 234.20137931034486,242.0689655172414Z" fill="#000000"></path><path id="r14C16" d="M273.7931034482759,242.0689655172414H289.7820689655172V258.05793103448275H273.7931034482759V242.0689655172414Z" fill="#000000"></path><path id="r14C18" d="M305.51724137931035,242.0689655172414H321.5062068965517V258.05793103448275H305.51724137931035V242.0689655172414Z" fill="#000000"></path><path id="r14C20" d="M337.2413793103448,242.0689655172414H353.2303448275862V258.05793103448275H337.2413793103448V242.0689655172414Z" fill="#000000"></path><path id="r14C24" d="M400.68965517241384,242.0689655172414H416.6786206896552V258.05793103448275H400.68965517241384V242.0689655172414Z" fill="#000000"></path><path id="r14C28" d="M464.1379310344828,242.0689655172414H480.12689655172414V258.05793103448275H464.1379310344828V242.0689655172414Z" fill="#000000"></path><path id="r15C3" d="M67.58620689655173,257.9310344827586H83.57517241379311V273.91999999999996H67.58620689655173V257.9310344827586Z" fill="#000000"></path><path id="r15C4" d="M83.44827586206897,257.9310344827586H99.43724137931035V273.91999999999996H91.44275862068966A7.9944827586206895,7.9944827586206895 0 0 1 83.44827586206897,265.9255172413793V257.9310344827586Z" fill="#000000"></path><path id="r15C7" d="M131.0344827586207,257.9310344827586H147.02344827586208V273.91999999999996H131.0344827586207V257.9310344827586Z" fill="#000000"></path><path id="r15C9" d="M162.75862068965517,257.9310344827586H178.74758620689656V265.9255172413793A7.9944827586206895,7.9944827586206895 0 0 1 170.75310344827585,273.91999999999996H162.75862068965517V257.9310344827586Z" fill="#000000"></path><path id="r15C10" d="M186.6151724137931,257.9310344827586H194.6096551724138V273.91999999999996H186.6151724137931A7.9944827586206895,7.9944827586206895 0 0 1 178.6206896551724,265.9255172413793V265.9255172413793A7.9944827586206895,7.9944827586206895 0 0 1 186.61517241379312,257.9310344827586Z" fill="#000000"></path><path id="r15C12" d="M210.34482758620692,257.9310344827586H226.3337931034483V273.91999999999996H210.34482758620692V257.9310344827586Z" fill="#000000"></path><path id="r15C14" d="M242.0689655172414,257.9310344827586H258.05793103448275V273.91999999999996H242.0689655172414V257.9310344827586Z" fill="#000000"></path><path id="r15C16" d="M273.7931034482759,257.9310344827586H289.7820689655172V273.91999999999996H273.7931034482759V257.9310344827586Z" fill="#000000"></path><path id="r15C18" d="M305.51724137931035,257.9310344827586H321.5062068965517V273.91999999999996H305.51724137931035V257.9310344827586Z" fill="#000000"></path><path id="r15C22" d="M368.9655172413793,257.9310344827586H376.96A7.9944827586206895,7.9944827586206895 0 0 1 384.95448275862066,265.9255172413793V265.9255172413793A7.9944827586206895,7.9944827586206895 0 0 1 376.96,273.91999999999996H368.9655172413793V257.9310344827586Z" fill="#000000"></path><path id="r15C23" d="M392.82206896551725,257.9310344827586H400.8165517241379V273.91999999999996H392.82206896551725A7.9944827586206895,7.9944827586206895 0 0 1 384.82758620689657,265.9255172413793V265.9255172413793A7.9944827586206895,7.9944827586206895 0 0 1 392.82206896551725,257.9310344827586Z" fill="#000000"></path><path id="r15C25" d="M416.55172413793105,257.9310344827586H432.5406896551724V273.91999999999996H416.55172413793105V257.9310344827586Z" fill="#000000"></path><path id="r15C27" d="M448.2758620689655,257.9310344827586H464.2648275862069V273.91999999999996H448.2758620689655V257.9310344827586Z" fill="#000000"></path><path id="r16C1" d="M35.86206896551724,273.7931034482759H43.85655172413793A7.9944827586206895,7.9944827586206895 0 0 1 51.85103448275862,281.78758620689655V281.78758620689655A7.9944827586206895,7.9944827586206895 0 0 1 43.85655172413793,289.7820689655172H35.86206896551724V273.7931034482759Z" fill="#000000"></path><path id="r16C2" d="M59.718620689655175,273.7931034482759H59.71862068965517A7.9944827586206895,7.9944827586206895 0 0 1 67.71310344827586,281.78758620689655V281.78758620689655A7.9944827586206895,7.9944827586206895 0 0 1 59.718620689655175,289.7820689655172H59.718620689655175A7.9944827586206895,7.9944827586206895 0 0 1 51.724137931034484,281.78758620689655V281.78758620689655A7.9944827586206895,7.9944827586206895 0 0 1 59.71862068965517,273.7931034482759Z" fill="#000000"></path><path id="r16C3" d="M67.58620689655173,273.7931034482759H83.57517241379311V289.7820689655172H67.58620689655173V273.7931034482759Z" fill="#000000"></path><path id="r16C5" d="M99.3103448275862,273.7931034482759H107.3048275862069A7.9944827586206895,7.9944827586206895 0 0 1 115.29931034482759,281.78758620689655V289.7820689655172H99.3103448275862V273.7931034482759Z" fill="#000000"></path><path id="r16C6" d="M123.16689655172415,273.7931034482759H123.16689655172415A7.9944827586206895,7.9944827586206895 0 0 1 131.16137931034484,281.78758620689655V281.78758620689655A7.9944827586206895,7.9944827586206895 0 0 1 123.16689655172415,289.7820689655172H123.16689655172415A7.9944827586206895,7.9944827586206895 0 0 1 115.17241379310346,281.78758620689655V281.78758620689655A7.9944827586206895,7.9944827586206895 0 0 1 123.16689655172415,273.7931034482759Z" fill="#000000"></path><path id="r16C7" d="M131.0344827586207,273.7931034482759H147.02344827586208V289.7820689655172H131.0344827586207V273.7931034482759Z" fill="#000000"></path><path id="r16C8" d="M154.8910344827586,273.7931034482759H162.88551724137932V289.7820689655172H154.8910344827586A7.9944827586206895,7.9944827586206895 0 0 1 146.89655172413794,281.78758620689655V281.78758620689655A7.9944827586206895,7.9944827586206895 0 0 1 154.89103448275864,273.7931034482759Z" fill="#000000"></path><path id="r16C11" d="M194.48275862068965,273.7931034482759H202.47724137931036A7.9944827586206895,7.9944827586206895 0 0 1 210.47172413793103,281.78758620689655V289.7820689655172H194.48275862068965V273.7931034482759Z" fill="#000000"></path><path id="r16C12" d="M210.34482758620692,273.7931034482759H226.3337931034483V281.78758620689655A7.9944827586206895,7.9944827586206895 0 0 1 218.3393103448276,289.7820689655172H218.3393103448276A7.9944827586206895,7.9944827586206895 0 0 1 210.34482758620692,281.78758620689655V273.7931034482759Z" fill="#000000"></path><path id="r16C13" d="M234.20137931034483,273.7931034482759H242.19586206896554V289.7820689655172H234.20137931034483A7.9944827586206895,7.9944827586206895 0 0 1 226.20689655172416,281.78758620689655V281.78758620689655A7.9944827586206895,7.9944827586206895 0 0 1 234.20137931034486,273.7931034482759Z" fill="#000000"></path><path id="r16C15" d="M257.9310344827586,273.7931034482759H265.9255172413793A7.9944827586206895,7.9944827586206895 0 0 1 273.91999999999996,281.78758620689655V281.78758620689655A7.9944827586206895,7.9944827586206895 0 0 1 265.9255172413793,289.7820689655172H257.9310344827586V273.7931034482759Z" fill="#000000"></path><path id="r16C16" d="M273.7931034482759,273.7931034482759H289.7820689655172V281.78758620689655A7.9944827586206895,7.9944827586206895 0 0 1 281.78758620689655,289.7820689655172H281.78758620689655A7.9944827586206895,7.9944827586206895 0 0 1 273.7931034482759,281.78758620689655V273.7931034482759Z" fill="#000000"></path><path id="r16C17" d="M297.6496551724138,273.7931034482759H297.6496551724138A7.9944827586206895,7.9944827586206895 0 0 1 305.6441379310345,281.78758620689655V281.78758620689655A7.9944827586206895,7.9944827586206895 0 0 1 297.6496551724138,289.7820689655172H297.6496551724138A7.9944827586206895,7.9944827586206895 0 0 1 289.65517241379314,281.78758620689655V281.78758620689655A7.9944827586206895,7.9944827586206895 0 0 1 297.6496551724138,273.7931034482759Z" fill="#000000"></path><path id="r16C18" d="M305.51724137931035,273.7931034482759H321.5062068965517V289.7820689655172H305.51724137931035V273.7931034482759Z" fill="#000000"></path><path id="r16C19" d="M329.3737931034483,273.7931034482759H337.36827586206897V289.7820689655172H321.3793103448276V281.78758620689655A7.9944827586206895,7.9944827586206895 0 0 1 329.3737931034483,273.7931034482759Z" fill="#000000"></path><path id="r16C24" d="M400.68965517241384,273.7931034482759H416.6786206896552V289.7820689655172H400.68965517241384V273.7931034482759Z" fill="#000000"></path><path id="r17C0" d="M20,289.65517241379314H35.98896551724138V305.6441379310345H20V289.65517241379314Z" fill="#000000"></path><path id="r17C3" d="M67.58620689655173,289.65517241379314H83.57517241379311V305.6441379310345H67.58620689655173V289.65517241379314Z" fill="#000000"></path><path id="r17C5" d="M99.3103448275862,289.65517241379314H115.29931034482759V305.6441379310345H99.3103448275862V289.65517241379314Z" fill="#000000"></path><path id="r17C7" d="M131.0344827586207,289.65517241379314H147.02344827586208V305.6441379310345H131.0344827586207V289.65517241379314Z" fill="#000000"></path><path id="r17C10" d="M178.6206896551724,289.65517241379314H186.61517241379312A7.9944827586206895,7.9944827586206895 0 0 1 194.6096551724138,297.6496551724138V297.6496551724138A7.9944827586206895,7.9944827586206895 0 0 1 186.6151724137931,305.6441379310345H178.6206896551724V289.65517241379314Z" fill="#000000"></path><path id="r17C11" d="M194.48275862068965,289.65517241379314H210.47172413793103V305.6441379310345H202.47724137931033A7.9944827586206895,7.9944827586206895 0 0 1 194.48275862068965,297.6496551724138V289.65517241379314Z" fill="#000000"></path><path id="r17C14" d="M242.0689655172414,289.65517241379314H258.05793103448275V305.6441379310345H242.0689655172414V289.65517241379314Z" fill="#000000"></path><path id="r17C18" d="M305.51724137931035,289.65517241379314H321.5062068965517V305.6441379310345H305.51724137931035V289.65517241379314Z" fill="#000000"></path><path id="r17C19" d="M321.3793103448276,289.65517241379314H337.36827586206897V297.6496551724138A7.9944827586206895,7.9944827586206895 0 0 1 329.3737931034483,305.6441379310345H329.3737931034483A7.9944827586206895,7.9944827586206895 0 0 1 321.3793103448276,297.6496551724138V289.65517241379314Z" fill="#000000"></path><path id="r17C20" d="M345.2358620689655,289.65517241379314H353.2303448275862V305.6441379310345H337.2413793103448V297.6496551724138A7.9944827586206895,7.9944827586206895 0 0 1 345.2358620689655,289.65517241379314Z" fill="#000000"></path><path id="r17C23" d="M384.82758620689657,289.65517241379314H392.82206896551725A7.9944827586206895,7.9944827586206895 0 0 1 400.8165517241379,297.6496551724138V297.6496551724138A7.9944827586206895,7.9944827586206895 0 0 1 392.82206896551725,305.6441379310345H384.82758620689657V289.65517241379314Z" fill="#000000"></path><path id="r17C24" d="M400.68965517241384,289.65517241379314H416.6786206896552V305.6441379310345H408.6841379310345A7.9944827586206895,7.9944827586206895 0 0 1 400.68965517241384,297.6496551724138V289.65517241379314Z" fill="#000000"></path><path id="r17C28" d="M464.1379310344828,289.65517241379314H480.12689655172414V305.6441379310345H464.1379310344828V289.65517241379314Z" fill="#000000"></path><path id="r18C6" d="M115.17241379310346,305.51724137931035H131.16137931034484V321.5062068965517H115.17241379310346V305.51724137931035Z" fill="#000000"></path><path id="r18C13" d="M226.20689655172416,305.51724137931035H234.20137931034486A7.9944827586206895,7.9944827586206895 0 0 1 242.19586206896554,313.511724137931V321.5062068965517H226.20689655172416V305.51724137931035Z" fill="#000000"></path><path id="r18C14" d="M242.0689655172414,305.51724137931035H258.05793103448275V321.5062068965517H242.0689655172414V305.51724137931035Z" fill="#000000"></path><path id="r18C17" d="M289.65517241379314,305.51724137931035H297.6496551724138A7.9944827586206895,7.9944827586206895 0 0 1 305.6441379310345,313.511724137931V313.511724137931A7.9944827586206895,7.9944827586206895 0 0 1 297.6496551724138,321.5062068965517H289.65517241379314V305.51724137931035Z" fill="#000000"></path><path id="r18C18" d="M305.51724137931035,305.51724137931035H321.5062068965517V321.5062068965517H305.51724137931035V305.51724137931035Z" fill="#000000"></path><path id="r18C20" d="M337.2413793103448,305.51724137931035H353.2303448275862V321.5062068965517H337.2413793103448V305.51724137931035Z" fill="#000000"></path><path id="r18C25" d="M416.55172413793105,305.51724137931035H424.5462068965517A7.9944827586206895,7.9944827586206895 0 0 1 432.5406896551724,313.511724137931V321.5062068965517H416.55172413793105V305.51724137931035Z" fill="#000000"></path><path id="r18C26" d="M440.408275862069,305.51724137931035H448.40275862068967V321.5062068965517H440.408275862069A7.9944827586206895,7.9944827586206895 0 0 1 432.4137931034483,313.511724137931V313.511724137931A7.9944827586206895,7.9944827586206895 0 0 1 440.408275862069,305.51724137931035Z" fill="#000000"></path><path id="r18C28" d="M464.1379310344828,305.51724137931035H480.12689655172414V321.5062068965517H464.1379310344828V305.51724137931035Z" fill="#000000"></path><path id="r19C2" d="M51.724137931034484,321.3793103448276H59.71862068965517A7.9944827586206895,7.9944827586206895 0 0 1 67.71310344827586,329.3737931034483V337.36827586206897H51.724137931034484V321.3793103448276Z" fill="#000000"></path><path id="r19C3" d="M75.58068965517242,321.3793103448276H75.58068965517242A7.9944827586206895,7.9944827586206895 0 0 1 83.57517241379311,329.3737931034483V337.36827586206897H67.58620689655173V329.3737931034483A7.9944827586206895,7.9944827586206895 0 0 1 75.58068965517242,321.3793103448276Z" fill="#000000"></path><path id="r19C4" d="M91.44275862068966,321.3793103448276H91.44275862068966A7.9944827586206895,7.9944827586206895 0 0 1 99.43724137931035,329.3737931034483V337.36827586206897H83.44827586206897V329.3737931034483A7.9944827586206895,7.9944827586206895 0 0 1 91.44275862068966,321.3793103448276Z" fill="#000000"></path><path id="r19C5" d="M107.3048275862069,321.3793103448276H115.29931034482759V337.36827586206897H107.3048275862069A7.9944827586206895,7.9944827586206895 0 0 1 99.3103448275862,329.3737931034483V329.3737931034483A7.9944827586206895,7.9944827586206895 0 0 1 107.3048275862069,321.3793103448276Z" fill="#000000"></path><path id="r19C8" d="M146.89655172413794,321.3793103448276H154.89103448275864A7.9944827586206895,7.9944827586206895 0 0 1 162.88551724137932,329.3737931034483V337.36827586206897H146.89655172413794V321.3793103448276Z" fill="#000000"></path><path id="r19C9" d="M170.75310344827585,321.3793103448276H170.75310344827588A7.9944827586206895,7.9944827586206895 0 0 1 178.74758620689656,329.3737931034483V329.3737931034483A7.9944827586206895,7.9944827586206895 0 0 1 170.75310344827585,337.36827586206897H170.75310344827585A7.9944827586206895,7.9944827586206895 0 0 1 162.75862068965517,329.3737931034483V329.3737931034483A7.9944827586206895,7.9944827586206895 0 0 1 170.75310344827588,321.3793103448276Z" fill="#000000"></path><path id="r19C10" d="M186.6151724137931,321.3793103448276H186.61517241379312A7.9944827586206895,7.9944827586206895 0 0 1 194.6096551724138,329.3737931034483V337.36827586206897H178.6206896551724V329.3737931034483A7.9944827586206895,7.9944827586206895 0 0 1 186.61517241379312,321.3793103448276Z" fill="#000000"></path><path id="r19C11" d="M202.47724137931033,321.3793103448276H210.47172413793103V337.36827586206897H194.48275862068965V329.3737931034483A7.9944827586206895,7.9944827586206895 0 0 1 202.47724137931036,321.3793103448276Z" fill="#000000"></path><path id="r19C13" d="M226.20689655172416,321.3793103448276H242.19586206896554V337.36827586206897H226.20689655172416V321.3793103448276Z" fill="#000000"></path><path id="r19C14" d="M242.0689655172414,321.3793103448276H258.05793103448275V329.3737931034483A7.9944827586206895,7.9944827586206895 0 0 1 250.06344827586207,337.36827586206897H250.06344827586207A7.9944827586206895,7.9944827586206895 0 0 1 242.0689655172414,329.3737931034483V321.3793103448276Z" fill="#000000"></path><path id="r19C15" d="M265.9255172413793,321.3793103448276H273.91999999999996V337.36827586206897H265.9255172413793A7.9944827586206895,7.9944827586206895 0 0 1 257.9310344827586,329.3737931034483V329.3737931034483A7.9944827586206895,7.9944827586206895 0 0 1 265.9255172413793,321.3793103448276Z" fill="#000000"></path><path id="r19C18" d="M305.51724137931035,321.3793103448276H321.5062068965517V337.36827586206897H305.51724137931035V321.3793103448276Z" fill="#000000"></path><path id="r19C25" d="M416.55172413793105,321.3793103448276H432.5406896551724V337.36827586206897H416.55172413793105V321.3793103448276Z" fill="#000000"></path><path id="r20C0" d="M20,337.2413793103448H27.99448275862069A7.9944827586206895,7.9944827586206895 0 0 1 35.98896551724138,345.2358620689655V345.2358620689655A7.9944827586206895,7.9944827586206895 0 0 1 27.99448275862069,353.2303448275862H20V337.2413793103448Z" fill="#000000"></path><path id="r20C1" d="M43.85655172413793,337.2413793103448H43.85655172413793A7.9944827586206895,7.9944827586206895 0 0 1 51.85103448275862,345.2358620689655V345.2358620689655A7.9944827586206895,7.9944827586206895 0 0 1 43.85655172413793,353.2303448275862H43.85655172413793A7.9944827586206895,7.9944827586206895 0 0 1 35.86206896551724,345.2358620689655V345.2358620689655A7.9944827586206895,7.9944827586206895 0 0 1 43.85655172413793,337.2413793103448Z" fill="#000000"></path><path id="r20C2" d="M51.724137931034484,337.2413793103448H67.71310344827586V345.2358620689655A7.9944827586206895,7.9944827586206895 0 0 1 59.718620689655175,353.2303448275862H59.718620689655175A7.9944827586206895,7.9944827586206895 0 0 1 51.724137931034484,345.2358620689655V337.2413793103448Z" fill="#000000"></path><path id="r20C3" d="M67.58620689655173,337.2413793103448H83.57517241379311V345.2358620689655A7.9944827586206895,7.9944827586206895 0 0 1 75.58068965517242,353.2303448275862H75.58068965517242A7.9944827586206895,7.9944827586206895 0 0 1 67.58620689655173,345.2358620689655V337.2413793103448Z" fill="#000000"></path><path id="r20C4" d="M83.44827586206897,337.2413793103448H99.43724137931035V353.2303448275862H91.44275862068966A7.9944827586206895,7.9944827586206895 0 0 1 83.44827586206897,345.2358620689655V337.2413793103448Z" fill="#000000"></path><path id="r20C6" d="M115.17241379310346,337.2413793103448H123.16689655172415A7.9944827586206895,7.9944827586206895 0 0 1 131.16137931034484,345.2358620689655V345.2358620689655A7.9944827586206895,7.9944827586206895 0 0 1 123.16689655172415,353.2303448275862H115.17241379310346V337.2413793103448Z" fill="#000000"></path><path id="r20C7" d="M139.02896551724137,337.2413793103448H139.0289655172414A7.9944827586206895,7.9944827586206895 0 0 1 147.02344827586208,345.2358620689655V345.2358620689655A7.9944827586206895,7.9944827586206895 0 0 1 139.02896551724137,353.2303448275862H139.02896551724137A7.9944827586206895,7.9944827586206895 0 0 1 131.0344827586207,345.2358620689655V345.2358620689655A7.9944827586206895,7.9944827586206895 0 0 1 139.0289655172414,337.2413793103448Z" fill="#000000"></path><path id="r20C8" d="M146.89655172413794,337.2413793103448H162.88551724137932V353.2303448275862H146.89655172413794V337.2413793103448Z" fill="#000000"></path><path id="r20C10" d="M178.6206896551724,337.2413793103448H194.6096551724138V353.2303448275862H178.6206896551724V337.2413793103448Z" fill="#000000"></path><path id="r20C11" d="M194.48275862068965,337.2413793103448H210.47172413793103V353.2303448275862H194.48275862068965V337.2413793103448Z" fill="#000000"></path><path id="r20C12" d="M218.3393103448276,337.2413793103448H218.33931034482762A7.9944827586206895,7.9944827586206895 0 0 1 226.3337931034483,345.2358620689655V353.2303448275862H210.34482758620692V345.2358620689655A7.9944827586206895,7.9944827586206895 0 0 1 218.33931034482762,337.2413793103448Z" fill="#000000"></path><path id="r20C13" d="M226.20689655172416,337.2413793103448H242.19586206896554V353.2303448275862H234.20137931034483A7.9944827586206895,7.9944827586206895 0 0 1 226.20689655172416,345.2358620689655V337.2413793103448Z" fill="#000000"></path><path id="r20C16" d="M273.7931034482759,337.2413793103448H281.78758620689655A7.9944827586206895,7.9944827586206895 0 0 1 289.7820689655172,345.2358620689655V345.2358620689655A7.9944827586206895,7.9944827586206895 0 0 1 281.78758620689655,353.2303448275862H273.7931034482759V337.2413793103448Z" fill="#000000"></path><path id="r20C17" d="M297.6496551724138,337.2413793103448H305.6441379310345V353.2303448275862H297.6496551724138A7.9944827586206895,7.9944827586206895 0 0 1 289.65517241379314,345.2358620689655V345.2358620689655A7.9944827586206895,7.9944827586206895 0 0 1 297.6496551724138,337.2413793103448Z" fill="#000000"></path><path id="r20C19" d="M321.3793103448276,337.2413793103448H329.3737931034483A7.9944827586206895,7.9944827586206895 0 0 1 337.36827586206897,345.2358620689655V345.2358620689655A7.9944827586206895,7.9944827586206895 0 0 1 329.3737931034483,353.2303448275862H321.3793103448276V337.2413793103448Z" fill="#000000"></path><path id="r20C20" d="M345.2358620689655,337.2413793103448H345.2358620689655A7.9944827586206895,7.9944827586206895 0 0 1 353.2303448275862,345.2358620689655V353.2303448275862H337.2413793103448V345.2358620689655A7.9944827586206895,7.9944827586206895 0 0 1 345.2358620689655,337.2413793103448Z" fill="#000000"></path><path id="r20C21" d="M361.09793103448277,337.2413793103448H361.09793103448277A7.9944827586206895,7.9944827586206895 0 0 1 369.09241379310345,345.2358620689655V345.2358620689655A7.9944827586206895,7.9944827586206895 0 0 1 361.09793103448277,353.2303448275862H361.09793103448277A7.9944827586206895,7.9944827586206895 0 0 1 353.1034482758621,345.2358620689655V345.2358620689655A7.9944827586206895,7.9944827586206895 0 0 1 361.09793103448277,337.2413793103448Z" fill="#000000"></path><path id="r20C22" d="M376.96,337.2413793103448H376.96A7.9944827586206895,7.9944827586206895 0 0 1 384.95448275862066,345.2358620689655V345.2358620689655A7.9944827586206895,7.9944827586206895 0 0 1 376.96,353.2303448275862H376.96A7.9944827586206895,7.9944827586206895 0 0 1 368.9655172413793,345.2358620689655V345.2358620689655A7.9944827586206895,7.9944827586206895 0 0 1 376.96,337.2413793103448Z" fill="#000000"></path><path id="r20C23" d="M392.82206896551725,337.2413793103448H392.82206896551725A7.9944827586206895,7.9944827586206895 0 0 1 400.8165517241379,345.2358620689655V345.2358620689655A7.9944827586206895,7.9944827586206895 0 0 1 392.82206896551725,353.2303448275862H392.82206896551725A7.9944827586206895,7.9944827586206895 0 0 1 384.82758620689657,345.2358620689655V345.2358620689655A7.9944827586206895,7.9944827586206895 0 0 1 392.82206896551725,337.2413793103448Z" fill="#000000"></path><path id="r20C24" d="M408.6841379310345,337.2413793103448H408.6841379310345A7.9944827586206895,7.9944827586206895 0 0 1 416.6786206896552,345.2358620689655V353.2303448275862H400.68965517241384V345.2358620689655A7.9944827586206895,7.9944827586206895 0 0 1 408.6841379310345,337.2413793103448Z" fill="#000000"></path><path id="r20C25" d="M416.55172413793105,337.2413793103448H432.5406896551724V345.2358620689655A7.9944827586206895,7.9944827586206895 0 0 1 424.5462068965517,353.2303448275862H424.5462068965517A7.9944827586206895,7.9944827586206895 0 0 1 416.55172413793105,345.2358620689655V337.2413793103448Z" fill="#000000"></path><path id="r20C26" d="M440.408275862069,337.2413793103448H448.40275862068967V353.2303448275862H432.4137931034483V345.2358620689655A7.9944827586206895,7.9944827586206895 0 0 1 440.408275862069,337.2413793103448Z" fill="#000000"></path><path id="r21C8" d="M146.89655172413794,353.1034482758621H162.88551724137932V369.09241379310345H146.89655172413794V353.1034482758621Z" fill="#000000"></path><path id="r21C10" d="M178.6206896551724,353.1034482758621H194.6096551724138V369.09241379310345H178.6206896551724V353.1034482758621Z" fill="#000000"></path><path id="r21C11" d="M194.48275862068965,353.1034482758621H210.47172413793103V369.09241379310345H194.48275862068965V353.1034482758621Z" fill="#000000"></path><path id="r21C12" d="M210.34482758620692,353.1034482758621H226.3337931034483V369.09241379310345H210.34482758620692V353.1034482758621Z" fill="#000000"></path><path id="r21C18" d="M305.51724137931035,353.1034482758621H321.5062068965517V369.09241379310345H305.51724137931035V353.1034482758621Z" fill="#000000"></path><path id="r21C20" d="M337.2413793103448,353.1034482758621H353.2303448275862V369.09241379310345H337.2413793103448V353.1034482758621Z" fill="#000000"></path><path id="r21C24" d="M400.68965517241384,353.1034482758621H416.6786206896552V369.09241379310345H400.68965517241384V353.1034482758621Z" fill="#000000"></path><path id="r21C26" d="M432.4137931034483,353.1034482758621H448.40275862068967V369.09241379310345H432.4137931034483V353.1034482758621Z" fill="#000000"></path><path id="r21C28" d="M464.1379310344828,353.1034482758621H480.12689655172414V369.09241379310345H464.1379310344828V353.1034482758621Z" fill="#000000"></path><path id="r22C8" d="M146.89655172413794,368.9655172413793H162.88551724137932V384.95448275862066H146.89655172413794V368.9655172413793Z" fill="#000000"></path><path id="r22C10" d="M178.6206896551724,368.9655172413793H194.6096551724138V384.95448275862066H178.6206896551724V368.9655172413793Z" fill="#000000"></path><path id="r22C11" d="M194.48275862068965,368.9655172413793H210.47172413793103V384.95448275862066H194.48275862068965V368.9655172413793Z" fill="#000000"></path><path id="r22C12" d="M210.34482758620692,368.9655172413793H226.3337931034483V376.96A7.9944827586206895,7.9944827586206895 0 0 1 218.3393103448276,384.95448275862066H218.3393103448276A7.9944827586206895,7.9944827586206895 0 0 1 210.34482758620692,376.96V368.9655172413793Z" fill="#000000"></path><path id="r22C13" d="M234.20137931034483,368.9655172413793H234.20137931034486A7.9944827586206895,7.9944827586206895 0 0 1 242.19586206896554,376.96V384.95448275862066H226.20689655172416V376.96A7.9944827586206895,7.9944827586206895 0 0 1 234.20137931034486,368.9655172413793Z" fill="#000000"></path><path id="r22C14" d="M250.06344827586207,368.9655172413793H258.05793103448275V384.95448275862066H242.0689655172414V376.96A7.9944827586206895,7.9944827586206895 0 0 1 250.06344827586207,368.9655172413793Z" fill="#000000"></path><path id="r22C16" d="M273.7931034482759,368.9655172413793H281.78758620689655A7.9944827586206895,7.9944827586206895 0 0 1 289.7820689655172,376.96V376.96A7.9944827586206895,7.9944827586206895 0 0 1 281.78758620689655,384.95448275862066H273.7931034482759V368.9655172413793Z" fill="#000000"></path><path id="r22C17" d="M297.6496551724138,368.9655172413793H305.6441379310345V384.95448275862066H297.6496551724138A7.9944827586206895,7.9944827586206895 0 0 1 289.65517241379314,376.96V376.96A7.9944827586206895,7.9944827586206895 0 0 1 297.6496551724138,368.9655172413793Z" fill="#000000"></path><path id="r22C19" d="M321.3793103448276,368.9655172413793H329.3737931034483A7.9944827586206895,7.9944827586206895 0 0 1 337.36827586206897,376.96V384.95448275862066H321.3793103448276V368.9655172413793Z" fill="#000000"></path><path id="r22C20" d="M337.2413793103448,368.9655172413793H353.2303448275862V384.95448275862066H337.2413793103448V368.9655172413793Z" fill="#000000"></path><path id="r22C22" d="M368.9655172413793,368.9655172413793H384.95448275862066V384.95448275862066H368.9655172413793V368.9655172413793Z" fill="#000000"></path><path id="r22C24" d="M400.68965517241384,368.9655172413793H416.6786206896552V384.95448275862066H400.68965517241384V368.9655172413793Z" fill="#000000"></path><path id="r22C28" d="M464.1379310344828,368.9655172413793H480.12689655172414V384.95448275862066H464.1379310344828V368.9655172413793Z" fill="#000000"></path><path id="r23C8" d="M146.89655172413794,384.82758620689657H162.88551724137932V400.8165517241379H146.89655172413794V384.82758620689657Z" fill="#000000"></path><path id="r23C10" d="M178.6206896551724,384.82758620689657H194.6096551724138V392.82206896551725A7.9944827586206895,7.9944827586206895 0 0 1 186.6151724137931,400.8165517241379H178.6206896551724V384.82758620689657Z" fill="#000000"></path><path id="r23C11" d="M194.48275862068965,384.82758620689657H210.47172413793103V400.8165517241379H194.48275862068965V384.82758620689657Z" fill="#000000"></path><path id="r23C13" d="M226.20689655172416,384.82758620689657H242.19586206896554V392.82206896551725A7.9944827586206895,7.9944827586206895 0 0 1 234.20137931034483,400.8165517241379H226.20689655172416V384.82758620689657Z" fill="#000000"></path><path id="r23C14" d="M242.0689655172414,384.82758620689657H258.05793103448275V400.8165517241379H250.06344827586207A7.9944827586206895,7.9944827586206895 0 0 1 242.0689655172414,392.82206896551725V384.82758620689657Z" fill="#000000"></path><path id="r23C19" d="M321.3793103448276,384.82758620689657H337.36827586206897V400.8165517241379H321.3793103448276V384.82758620689657Z" fill="#000000"></path><path id="r23C20" d="M337.2413793103448,384.82758620689657H353.2303448275862V400.8165517241379H337.2413793103448V384.82758620689657Z" fill="#000000"></path><path id="r23C24" d="M400.68965517241384,384.82758620689657H416.6786206896552V400.8165517241379H400.68965517241384V384.82758620689657Z" fill="#000000"></path><path id="r23C25" d="M424.5462068965517,384.82758620689657H432.5406896551724V400.8165517241379H424.5462068965517A7.9944827586206895,7.9944827586206895 0 0 1 416.55172413793105,392.82206896551725V392.82206896551725A7.9944827586206895,7.9944827586206895 0 0 1 424.5462068965517,384.82758620689657Z" fill="#000000"></path><path id="r23C27" d="M448.2758620689655,384.82758620689657H464.2648275862069V400.8165517241379H448.2758620689655V384.82758620689657Z" fill="#000000"></path><path id="r24C8" d="M146.89655172413794,400.68965517241384H162.88551724137932V416.6786206896552H146.89655172413794V400.68965517241384Z" fill="#000000"></path><path id="r24C11" d="M194.48275862068965,400.68965517241384H210.47172413793103V416.6786206896552H194.48275862068965V400.68965517241384Z" fill="#000000"></path><path id="r24C12" d="M218.3393103448276,400.68965517241384H226.3337931034483V416.6786206896552H218.3393103448276A7.9944827586206895,7.9944827586206895 0 0 1 210.34482758620692,408.6841379310345V408.6841379310345A7.9944827586206895,7.9944827586206895 0 0 1 218.33931034482762,400.68965517241384Z" fill="#000000"></path><path id="r24C15" d="M257.9310344827586,400.68965517241384H273.91999999999996V416.6786206896552H257.9310344827586V400.68965517241384Z" fill="#000000"></path><path id="r24C18" d="M305.51724137931035,400.68965517241384H313.511724137931A7.9944827586206895,7.9944827586206895 0 0 1 321.5062068965517,408.6841379310345V416.6786206896552H305.51724137931035V400.68965517241384Z" fill="#000000"></path><path id="r24C19" d="M321.3793103448276,400.68965517241384H337.36827586206897V408.6841379310345A7.9944827586206895,7.9944827586206895 0 0 1 329.3737931034483,416.6786206896552H329.3737931034483A7.9944827586206895,7.9944827586206895 0 0 1 321.3793103448276,408.6841379310345V400.68965517241384Z" fill="#000000"></path><path id="r24C20" d="M337.2413793103448,400.68965517241384H353.2303448275862V408.6841379310345A7.9944827586206895,7.9944827586206895 0 0 1 345.2358620689655,416.6786206896552H345.2358620689655A7.9944827586206895,7.9944827586206895 0 0 1 337.2413793103448,408.6841379310345V400.68965517241384Z" fill="#000000"></path><path id="r24C21" d="M361.09793103448277,400.68965517241384H361.09793103448277A7.9944827586206895,7.9944827586206895 0 0 1 369.09241379310345,408.6841379310345V408.6841379310345A7.9944827586206895,7.9944827586206895 0 0 1 361.09793103448277,416.6786206896552H361.09793103448277A7.9944827586206895,7.9944827586206895 0 0 1 353.1034482758621,408.6841379310345V408.6841379310345A7.9944827586206895,7.9944827586206895 0 0 1 361.09793103448277,400.68965517241384Z" fill="#000000"></path><path id="r24C22" d="M376.96,400.68965517241384H376.96A7.9944827586206895,7.9944827586206895 0 0 1 384.95448275862066,408.6841379310345V408.6841379310345A7.9944827586206895,7.9944827586206895 0 0 1 376.96,416.6786206896552H376.96A7.9944827586206895,7.9944827586206895 0 0 1 368.9655172413793,408.6841379310345V408.6841379310345A7.9944827586206895,7.9944827586206895 0 0 1 376.96,400.68965517241384Z" fill="#000000"></path><path id="r24C23" d="M392.82206896551725,400.68965517241384H392.82206896551725A7.9944827586206895,7.9944827586206895 0 0 1 400.8165517241379,408.6841379310345V416.6786206896552H384.82758620689657V408.6841379310345A7.9944827586206895,7.9944827586206895 0 0 1 392.82206896551725,400.68965517241384Z" fill="#000000"></path><path id="r24C24" d="M400.68965517241384,400.68965517241384H416.6786206896552V416.6786206896552H408.6841379310345A7.9944827586206895,7.9944827586206895 0 0 1 400.68965517241384,408.6841379310345V400.68965517241384Z" fill="#000000"></path><path id="r24C27" d="M448.2758620689655,400.68965517241384H464.2648275862069V416.6786206896552H448.2758620689655V400.68965517241384Z" fill="#000000"></path><path id="r24C28" d="M472.13241379310347,400.68965517241384H480.12689655172414V416.6786206896552H472.13241379310347A7.9944827586206895,7.9944827586206895 0 0 1 464.1379310344828,408.6841379310345V408.6841379310345A7.9944827586206895,7.9944827586206895 0 0 1 472.13241379310347,400.68965517241384Z" fill="#000000"></path><path id="r25C9" d="M162.75862068965517,416.55172413793105H178.74758620689656V432.5406896551724H162.75862068965517V416.55172413793105Z" fill="#000000"></path><path id="r25C11" d="M194.48275862068965,416.55172413793105H210.47172413793103V432.5406896551724H194.48275862068965V416.55172413793105Z" fill="#000000"></path><path id="r25C15" d="M257.9310344827586,416.55172413793105H273.91999999999996V424.5462068965517A7.9944827586206895,7.9944827586206895 0 0 1 265.9255172413793,432.5406896551724H257.9310344827586V416.55172413793105Z" fill="#000000"></path><path id="r25C16" d="M281.78758620689655,416.55172413793105H289.7820689655172V432.5406896551724H273.7931034482759V424.5462068965517A7.9944827586206895,7.9944827586206895 0 0 1 281.78758620689655,416.55172413793105Z" fill="#000000"></path><path id="r25C18" d="M305.51724137931035,416.55172413793105H321.5062068965517V432.5406896551724H305.51724137931035V416.55172413793105Z" fill="#000000"></path><path id="r25C23" d="M384.82758620689657,416.55172413793105H400.8165517241379V432.5406896551724H384.82758620689657V416.55172413793105Z" fill="#000000"></path><path id="r25C26" d="M432.4137931034483,416.55172413793105H440.408275862069A7.9944827586206895,7.9944827586206895 0 0 1 448.40275862068967,424.5462068965517V432.5406896551724H432.4137931034483V416.55172413793105Z" fill="#000000"></path><path id="r25C27" d="M448.2758620689655,416.55172413793105H464.2648275862069V432.5406896551724H448.2758620689655V416.55172413793105Z" fill="#000000"></path><path id="r26C16" d="M273.7931034482759,432.4137931034483H289.7820689655172V448.40275862068967H273.7931034482759V432.4137931034483Z" fill="#000000"></path><path id="r26C19" d="M321.3793103448276,432.4137931034483H329.3737931034483A7.9944827586206895,7.9944827586206895 0 0 1 337.36827586206897,440.408275862069V440.408275862069A7.9944827586206895,7.9944827586206895 0 0 1 329.3737931034483,448.40275862068967H321.3793103448276V432.4137931034483Z" fill="#000000"></path><path id="r26C20" d="M345.2358620689655,432.4137931034483H345.2358620689655A7.9944827586206895,7.9944827586206895 0 0 1 353.2303448275862,440.408275862069V440.408275862069A7.9944827586206895,7.9944827586206895 0 0 1 345.2358620689655,448.40275862068967H345.2358620689655A7.9944827586206895,7.9944827586206895 0 0 1 337.2413793103448,440.408275862069V440.408275862069A7.9944827586206895,7.9944827586206895 0 0 1 345.2358620689655,432.4137931034483Z" fill="#000000"></path><path id="r26C21" d="M361.09793103448277,432.4137931034483H369.09241379310345V448.40275862068967H361.09793103448277A7.9944827586206895,7.9944827586206895 0 0 1 353.1034482758621,440.408275862069V440.408275862069A7.9944827586206895,7.9944827586206895 0 0 1 361.09793103448277,432.4137931034483Z" fill="#000000"></path><path id="r26C25" d="M416.55172413793105,432.4137931034483H424.5462068965517A7.9944827586206895,7.9944827586206895 0 0 1 432.5406896551724,440.408275862069V440.408275862069A7.9944827586206895,7.9944827586206895 0 0 1 424.5462068965517,448.40275862068967H416.55172413793105V432.4137931034483Z" fill="#000000"></path><path id="r26C26" d="M432.4137931034483,432.4137931034483H448.40275862068967V440.408275862069A7.9944827586206895,7.9944827586206895 0 0 1 440.408275862069,448.40275862068967H440.408275862069A7.9944827586206895,7.9944827586206895 0 0 1 432.4137931034483,440.408275862069V432.4137931034483Z" fill="#000000"></path><path id="r26C27" d="M448.2758620689655,432.4137931034483H464.2648275862069V448.40275862068967H448.2758620689655V432.4137931034483Z" fill="#000000"></path><path id="r26C28" d="M472.13241379310347,432.4137931034483H480.12689655172414V448.40275862068967H464.1379310344828V440.408275862069A7.9944827586206895,7.9944827586206895 0 0 1 472.13241379310347,432.4137931034483Z" fill="#000000"></path><path id="r27C10" d="M178.6206896551724,448.2758620689655H194.6096551724138V464.2648275862069H178.6206896551724V448.2758620689655Z" fill="#000000"></path><path id="r27C13" d="M226.20689655172416,448.2758620689655H242.19586206896554V464.2648275862069H226.20689655172416V448.2758620689655Z" fill="#000000"></path><path id="r27C18" d="M305.51724137931035,448.2758620689655H321.5062068965517V464.2648275862069H305.51724137931035V448.2758620689655Z" fill="#000000"></path><path id="r27C23" d="M384.82758620689657,448.2758620689655H400.8165517241379V464.2648275862069H384.82758620689657V448.2758620689655Z" fill="#000000"></path><path id="r27C27" d="M448.2758620689655,448.2758620689655H464.2648275862069V464.2648275862069H448.2758620689655V448.2758620689655Z" fill="#000000"></path><path id="r27C28" d="M464.1379310344828,448.2758620689655H480.12689655172414V464.2648275862069H472.13241379310347A7.9944827586206895,7.9944827586206895 0 0 1 464.1379310344828,456.2703448275862V448.2758620689655Z" fill="#000000"></path><path id="r28C9" d="M162.75862068965517,464.1379310344828H170.75310344827588A7.9944827586206895,7.9944827586206895 0 0 1 178.74758620689656,472.13241379310347V472.13241379310347A7.9944827586206895,7.9944827586206895 0 0 1 170.75310344827585,480.12689655172414H162.75862068965517V464.1379310344828Z" fill="#000000"></path><path id="r28C10" d="M178.6206896551724,464.1379310344828H194.6096551724138V480.12689655172414H186.6151724137931A7.9944827586206895,7.9944827586206895 0 0 1 178.6206896551724,472.13241379310347V464.1379310344828Z" fill="#000000"></path><path id="r28C14" d="M242.0689655172414,464.1379310344828H258.05793103448275V480.12689655172414H242.0689655172414V464.1379310344828Z" fill="#000000"></path><path id="r28C17" d="M289.65517241379314,464.1379310344828H305.6441379310345V480.12689655172414H289.65517241379314V464.1379310344828Z" fill="#000000"></path><path id="r28C22" d="M368.9655172413793,464.1379310344828H384.95448275862066V480.12689655172414H368.9655172413793V464.1379310344828Z" fill="#000000"></path><path id="r28C24" d="M400.68965517241384,464.1379310344828H416.6786206896552V480.12689655172414H400.68965517241384V464.1379310344828Z" fill="#000000"></path><path id="r28C27" d="M448.2758620689655,464.1379310344828H464.2648275862069V480.12689655172414H448.2758620689655V464.1379310344828Z" fill="#000000"></path><path id="outerEye" d="M20,30V121.0344827586207A10,10  0 0 0 30,131.0344827586207H121.0344827586207A10,10  0 0 0 131.0344827586207,121.0344827586207V30A10,10  0 0 0 121.0344827586207,20H30A10,10  0 0 0 20,30Z M105.17241379310346,115.17241379310346H45.86206896551724A10,10  0 0 1 35.86206896551724,105.17241379310346V45.86206896551724A10,10  0 0 1 45.86206896551724,35.86206896551724H105.17241379310346A10,10  0 0 1 115.17241379310346,45.86206896551724V105.17241379310346A10,10  0 0 1 105.17241379310346,115.17241379310346z" fill="#000000"></path><path id="outerEye" d="M20,378.9655172413793V470A10,10  0 0 0 30,480H121.0344827586207A10,10  0 0 0 131.0344827586207,470V378.9655172413793A10,10  0 0 0 121.0344827586207,368.9655172413793H30A10,10  0 0 0 20,378.9655172413793Z M105.17241379310346,464.13793103448273H45.86206896551724A10,10  0 0 1 35.86206896551724,454.13793103448273V394.82758620689657A10,10  0 0 1 45.86206896551724,384.82758620689657H105.17241379310346A10,10  0 0 1 115.17241379310346,394.82758620689657V454.13793103448273A10,10  0 0 1 105.17241379310346,464.13793103448273z" fill="#000000"></path><path id="outerEye" d="M368.9655172413793,30V121.0344827586207A10,10  0 0 0 378.9655172413793,131.0344827586207H470A10,10  0 0 0 480,121.0344827586207V30A10,10  0 0 0 470,20H378.9655172413793A10,10  0 0 0 368.9655172413793,30Z M454.13793103448273,115.17241379310346H394.82758620689657A10,10  0 0 1 384.82758620689657,105.17241379310346V45.86206896551724A10,10  0 0 1 394.82758620689657,35.86206896551724H454.13793103448273A10,10  0 0 1 464.13793103448273,45.86206896551724V105.17241379310346A10,10  0 0 1 454.13793103448273,115.17241379310346z" fill="#000000"></path><circle id="innerEye" r="23.793103448275865" cx="75.51724137931035" cy="75.51724137931035" fill="#000000"></circle><circle id="innerEye" r="23.793103448275865" cx="424.4827586206897" cy="75.51724137931035" fill="#000000"></circle><circle id="innerEye" r="23.793103448275865" cx="75.51724137931035" cy="424.4827586206897" fill="#000000"></circle></svg></svg></svg>